# Blender v2.73 (sub 0) OBJ File: ''
# www.blender.org
mtllib cube_triangulate_normals_flat.mtl
o Cube
v 1.059303 -1.037626 -0.914650
v 1.059303 -1.037626 1.085350
v -0.940697 -1.037626 1.085350
v -0.940696 -1.037626 -0.914650
v 1.059304 0.962374 -0.914649
v 1.059303 0.962374 1.085351
v -0.940697 0.962374 1.085350
v -0.940697 0.962374 -0.914650
vn 0.000000 -1.000000 0.000000
vn 0.000000 1.000000 -0.000000
vn 1.000000 0.000000 0.000000
vn -0.000000 0.000000 1.000000
vn -1.000000 -0.000000 -0.000000
vn 0.000000 0.000000 -1.000000
usemtl Material
s off
f 2//1 3//1 4//1
f 8//2 7//2 6//2
f 5//3 6//3 2//3
f 6//4 7//4 3//4
f 3//5 7//5 8//5
f 1//6 4//6 8//6
f 1//1 2//1 4//1
f 5//2 8//2 6//2
f 1//3 5//3 2//3
f 2//4 6//4 3//4
f 4//5 3//5 8//5
f 5//6 1//6 8//6
